<?xml version="1.0" encoding="utf-8"?>
<!-- Svg Vector Icons : http://www.onlinewebfonts.com/icon -->
<!DOCTYPE svg PUBLIC "-//W3C//DTD SVG 1.1//EN" "http://www.w3.org/Graphics/SVG/1.1/DTD/svg11.dtd">
<svg version="1.1" xmlns="http://www.w3.org/2000/svg" xmlns:xlink="http://www.w3.org/1999/xlink" x="0px" y="0px" viewBox="0 0 1000 1000" enable-background="new 0 0 1000 1000" xml:space="preserve">
<metadata> Svg Vector Icons : http://www.onlinewebfonts.com/icon </metadata>
<g><g transform="translate(0.000000,511.000000) scale(0.100000,-0.100000)"><path d="M772.2,4998.7c-260.9-56.2-491.6-240.8-608-487.6L100,4374.7v-4266v-4264l76.2-152.5c124.4-252.8,349.2-427.4,616-477.6c68.2-12,1541.1-20.1,4221.9-20.1c4448.6,0,4219.9-6,4430.6,102.3c108.3,54.2,282.9,220.7,345.1,327.1c120.4,206.7,112.4-98.3,108.3,4526.8l-6,4223.9l-64.2,136.4c-76.3,158.5-228.7,327.1-363.2,401.3c-220.7,120.4,24.1,114.4-4468.7,112.4C1885.9,5022.8,856.5,5016.8,772.2,4998.7z M8798.6,4565.3c258.9-48.2,475.6-212.7,587.9-439.5l64.2-132.4V110.7v-3882.7l-64.2-132.4c-82.3-164.5-222.7-301-403.3-385.3l-134.4-64.2l-3772.4-6c-2763.1-4-3804.5,0-3892.8,16.1c-299,58.2-535.8,272.9-620,559.8c-28.1,98.3-32.1,495.6-32.1,3898.8c0,3778.4,0,3790.4,42.1,3912.8c96.3,284.9,329.1,489.6,618,537.8C1334,4589.4,8672.1,4589.4,8798.6,4565.3z"/></g></g>
</svg>