<svg xmlns="http://www.w3.org/2000/svg" xmlns:xlink="http://www.w3.org/1999/xlink" viewBox="576.88 639.49 369.36 210.02">
  <defs>
    <style>
      .cls-1 {
        stroke: #235cfe;
        stroke-width: 15px;
        fill: url(#linear-gradient);
      }

      .cls-1, .cls-2 {
        stroke-linejoin: bevel;
        fill-rule: evenodd;
      }

      .cls-2 {
        fill: none;
        stroke: #cce0ff;
        stroke-width: 8px;
      }
    </style>
    <linearGradient id="linear-gradient" x1="584.375" y1="753.786" x2="938.75" y2="735.214" gradientUnits="userSpaceOnUse">
      <stop offset="0" stop-color="#bfddff"/>
      <stop offset="0.994" stop-color="#6ea2f8"/>
      <stop offset="1" stop-color="#6ea2f8"/>
    </linearGradient>
  </defs>
  <path id="Shape_1_copy_2" data-name="Shape 1 copy 2" class="cls-1" d="M587.952,647.218H933.5c6.744,0,5.058-2.019,5.058,6.057V836.487c0,7.1,1.367,5.326-4.1,5.326H666.576c-4.18,0-2.737.98-4.329-2.94l-76.32-187.91C583.9,645.97,583.224,647.218,587.952,647.218Z"/>
  <path id="Shape_1_copy_2-2" data-name="Shape 1 copy 2" class="cls-2" d="M591.2,643.969H936.753c6.744,0,5.058-2.019,5.058,6.057V833.238c0,7.1,1.367,5.326-4.1,5.326H669.826c-4.181,0-2.737.98-4.33-2.94l-76.319-187.91C587.149,642.721,586.474,643.969,591.2,643.969Z"/>
</svg>